<svg width="575" height="575" viewBox="0 0 575 575" fill="none" xmlns="http://www.w3.org/2000/svg">
<rect width="575" height="575" fill="white"/>
<path d="M184.586 446L187.906 411.625H199.566L202.828 446H196.324L195.836 440.453H191.695L191.266 446H184.586ZM192.184 434.965H195.309L193.805 417.484H193.492L192.184 434.965ZM204.938 446V411.625H214.254C216.754 411.625 218.57 412.237 219.703 413.461C220.849 414.672 221.422 416.677 221.422 419.477V420.98C221.422 422.595 221.129 423.904 220.543 424.906C219.97 425.909 219.091 426.566 217.906 426.879C219.456 427.27 220.491 428.188 221.012 429.633C221.546 431.065 221.812 432.816 221.812 434.887C221.812 437.113 221.604 439.06 221.188 440.727C220.771 442.393 220.016 443.689 218.922 444.613C217.828 445.538 216.272 446 214.254 446H204.938ZM211.656 424.574H213.062C213.701 424.574 214.111 424.327 214.293 423.832C214.475 423.337 214.566 422.745 214.566 422.055V418.598C214.566 417.491 214.078 416.938 213.102 416.938H211.656V424.574ZM212.34 439.945C214.124 439.945 215.016 439.099 215.016 437.406V433.109C215.016 432.133 214.866 431.365 214.566 430.805C214.28 430.232 213.733 429.945 212.926 429.945H211.656V439.906C211.943 439.932 212.171 439.945 212.34 439.945ZM224.078 446V411.625H234.547L237.438 432.582L240.309 411.625H250.875V446H244.586V421.234L240.641 446H234.469L230.289 421.234V446H224.078ZM262.945 436.059V431.527H273.023V436.059H262.945Z" fill="#212121"/>
<path d="M285.133 446V411.625H291.93V425.395L295.133 411.625H302.047L298.199 427.367L302.848 446H295.719L291.969 429.359V446H285.133ZM303.727 446V411.625H310.367V446H303.727ZM321.305 446.312C318.557 446.312 316.454 445.486 314.996 443.832C313.551 442.165 312.828 439.763 312.828 436.625V420.297C312.828 417.354 313.544 415.121 314.977 413.598C316.422 412.074 318.531 411.312 321.305 411.312C324.078 411.312 326.181 412.074 327.613 413.598C329.059 415.121 329.781 417.354 329.781 420.297V436.625C329.781 439.763 329.052 442.165 327.594 443.832C326.148 445.486 324.052 446.312 321.305 446.312ZM321.363 439.984C322.405 439.984 322.926 438.975 322.926 436.957V420.18C322.926 418.487 322.418 417.641 321.402 417.641C320.257 417.641 319.684 418.507 319.684 420.238V436.996C319.684 438.064 319.814 438.832 320.074 439.301C320.335 439.757 320.764 439.984 321.363 439.984ZM340.719 446.312C337.581 446.312 335.315 445.531 333.922 443.969C332.542 442.406 331.852 439.919 331.852 436.508V433.148H338.648V437.445C338.648 438.24 338.766 438.865 339 439.32C339.247 439.763 339.671 439.984 340.27 439.984C340.895 439.984 341.324 439.802 341.559 439.438C341.806 439.073 341.93 438.474 341.93 437.641C341.93 436.586 341.826 435.707 341.617 435.004C341.409 434.288 341.044 433.611 340.523 432.973C340.016 432.322 339.306 431.566 338.395 430.707L335.309 427.777C333.004 425.603 331.852 423.116 331.852 420.316C331.852 417.387 332.529 415.154 333.883 413.617C335.25 412.081 337.223 411.312 339.801 411.312C342.952 411.312 345.185 412.152 346.5 413.832C347.828 415.512 348.492 418.064 348.492 421.488H341.5V419.125C341.5 418.656 341.363 418.292 341.09 418.031C340.829 417.771 340.471 417.641 340.016 417.641C339.469 417.641 339.065 417.797 338.805 418.109C338.557 418.409 338.434 418.799 338.434 419.281C338.434 419.763 338.564 420.284 338.824 420.844C339.085 421.404 339.599 422.048 340.367 422.777L344.332 426.586C345.126 427.341 345.855 428.142 346.52 428.988C347.184 429.822 347.717 430.798 348.121 431.918C348.525 433.025 348.727 434.379 348.727 435.98C348.727 439.21 348.128 441.742 346.93 443.578C345.745 445.401 343.674 446.312 340.719 446.312ZM359.039 446.312C356.552 446.312 354.547 445.538 353.023 443.988C351.513 442.439 350.758 440.271 350.758 437.484V421.625C350.758 418.292 351.415 415.74 352.73 413.969C354.059 412.198 356.214 411.312 359.195 411.312C360.823 411.312 362.268 411.612 363.531 412.211C364.807 412.81 365.81 413.708 366.539 414.906C367.268 416.091 367.633 417.589 367.633 419.398V425.336H360.797V420.258C360.797 419.229 360.667 418.539 360.406 418.188C360.146 417.823 359.742 417.641 359.195 417.641C358.557 417.641 358.128 417.875 357.906 418.344C357.685 418.799 357.574 419.411 357.574 420.18V437.387C357.574 438.337 357.711 439.008 357.984 439.398C358.271 439.789 358.674 439.984 359.195 439.984C359.781 439.984 360.191 439.743 360.426 439.262C360.673 438.78 360.797 438.155 360.797 437.387V431.195H367.711V437.699C367.711 440.72 366.949 442.914 365.426 444.281C363.902 445.635 361.773 446.312 359.039 446.312ZM378.219 446.312C375.471 446.312 373.368 445.486 371.91 443.832C370.465 442.165 369.742 439.763 369.742 436.625V420.297C369.742 417.354 370.458 415.121 371.891 413.598C373.336 412.074 375.445 411.312 378.219 411.312C380.992 411.312 383.095 412.074 384.527 413.598C385.973 415.121 386.695 417.354 386.695 420.297V436.625C386.695 439.763 385.966 442.165 384.508 443.832C383.062 445.486 380.966 446.312 378.219 446.312ZM378.277 439.984C379.319 439.984 379.84 438.975 379.84 436.957V420.18C379.84 418.487 379.332 417.641 378.316 417.641C377.171 417.641 376.598 418.507 376.598 420.238V436.996C376.598 438.064 376.728 438.832 376.988 439.301C377.249 439.757 377.678 439.984 378.277 439.984Z" fill="#FF826E"/>
<path d="M288.001 313.806C317.717 313.806 341.807 289.716 341.807 260C341.807 230.283 317.717 206.193 288.001 206.193C258.284 206.193 234.194 230.283 234.194 260C234.194 289.716 258.284 313.806 288.001 313.806Z" fill="#69D6F4"/>
<path d="M413.55 286.903H377.679C375.3 286.903 373.019 285.958 371.338 284.276C369.656 282.594 368.711 280.313 368.711 277.935V242.064C368.711 239.686 369.656 237.405 371.338 235.723C373.019 234.041 375.3 233.096 377.679 233.096H413.55C415.928 233.096 418.209 234.041 419.891 235.723C421.573 237.405 422.518 239.686 422.518 242.064V277.935C422.518 280.313 421.573 282.594 419.891 284.276C418.209 285.958 415.928 286.903 413.55 286.903ZM305.937 394.516H270.066C267.688 394.516 265.407 393.571 263.725 391.889C262.043 390.207 261.098 387.926 261.098 385.548V349.677C261.098 347.299 262.043 345.018 263.725 343.336C265.407 341.654 267.688 340.709 270.066 340.709H305.937C308.315 340.709 310.596 341.654 312.278 343.336C313.96 345.018 314.905 347.299 314.905 349.677V385.548C314.905 387.926 313.96 390.207 312.278 391.889C310.596 393.571 308.315 394.516 305.937 394.516ZM198.324 286.903H162.453C160.075 286.903 157.794 285.958 156.112 284.276C154.43 282.594 153.485 280.313 153.485 277.935V242.064C153.485 239.686 154.43 237.405 156.112 235.723C157.794 234.041 160.075 233.096 162.453 233.096H198.324C200.702 233.096 202.983 234.041 204.665 235.723C206.347 237.405 207.292 239.686 207.292 242.064V277.935C207.292 280.313 206.347 282.594 204.665 284.276C202.983 285.958 200.702 286.903 198.324 286.903ZM305.937 179.29H270.066C267.688 179.29 265.407 178.345 263.725 176.663C262.043 174.981 261.098 172.7 261.098 170.322V134.451C261.098 132.073 262.043 129.792 263.725 128.11C265.407 126.428 267.688 125.483 270.066 125.483H305.937C308.315 125.483 310.596 126.428 312.278 128.11C313.96 129.792 314.905 132.073 314.905 134.451V170.322C314.905 172.7 313.96 174.981 312.278 176.663C310.596 178.345 308.315 179.29 305.937 179.29Z" fill="#FCD770"/>
<path d="M184.871 394.516C189.824 394.516 193.839 390.501 193.839 385.548C193.839 380.596 189.824 376.581 184.871 376.581C179.918 376.581 175.903 380.596 175.903 385.548C175.903 390.501 179.918 394.516 184.871 394.516Z" fill="#FF826E"/>
<path d="M409.065 147.904C416.508 147.904 422.516 153.912 422.516 161.355C422.516 168.799 416.508 174.807 409.065 174.807H364.226C356.783 174.807 350.774 168.799 350.774 161.355C350.774 153.912 356.783 147.904 364.226 147.904C364.226 135.528 374.27 125.484 386.645 125.484C399.021 125.484 409.065 135.528 409.065 147.904Z" fill="#E6E9ED"/>
<path d="M193.838 206.194C216.126 206.194 234.193 188.127 234.193 165.839C234.193 143.552 216.126 125.484 193.838 125.484C171.551 125.484 153.483 143.552 153.483 165.839C153.483 188.127 171.551 206.194 193.838 206.194Z" fill="#E6E9ED"/>
<path d="M193.839 170.322C208.053 170.322 220.025 179.738 223.881 192.697L223.925 192.742C223.387 193.28 222.894 193.818 222.356 194.356C218.619 198.113 214.175 201.094 209.281 203.126C204.386 205.157 199.138 206.2 193.839 206.193C181.912 206.193 171.15 200.992 163.752 192.742L163.797 192.697C165.724 186.228 169.69 180.554 175.104 176.523C180.517 172.491 187.089 170.316 193.839 170.322Z" fill="#FF826E"/>
<path d="M193.838 170.323C201.267 170.323 207.29 164.3 207.29 156.871C207.29 149.442 201.267 143.419 193.838 143.419C186.409 143.419 180.387 149.442 180.387 156.871C180.387 164.3 186.409 170.323 193.838 170.323Z" fill="#F0D0B4"/>
<path d="M422.515 340.709V385.548C422.515 390.48 418.48 394.516 413.548 394.516H350.773C345.841 394.516 341.806 390.48 341.806 385.548V340.709C341.806 335.777 345.841 331.742 350.773 331.742H413.548C418.48 331.742 422.515 335.777 422.515 340.709Z" fill="#F0D0B4"/>
<path d="M184.872 372.097C177.456 372.097 171.421 378.132 171.421 385.548C171.421 392.965 177.456 399 184.872 399C192.289 399 198.324 392.965 198.324 385.548C198.324 378.132 192.289 372.097 184.872 372.097ZM184.872 390.032C183.718 389.98 182.628 389.485 181.829 388.65C181.03 387.815 180.585 386.704 180.585 385.548C180.585 384.393 181.03 383.281 181.829 382.446C182.628 381.611 183.718 381.116 184.872 381.064C186.027 381.116 187.117 381.611 187.916 382.446C188.714 383.281 189.16 384.393 189.16 385.548C189.16 386.704 188.714 387.815 187.916 388.65C187.117 389.485 186.027 389.98 184.872 390.032ZM162.682 363.353L169.022 369.693C173.255 365.46 178.886 363.129 184.872 363.129C190.858 363.129 196.49 365.46 200.723 369.693L207.063 363.353C201.135 357.425 193.257 354.161 184.872 354.161C176.487 354.161 168.609 357.425 162.682 363.353Z" fill="black"/>
<path d="M149.995 350.673L156.335 357.014C172.074 341.28 197.672 341.28 213.41 357.014L219.751 350.673C200.515 331.442 169.226 331.442 149.995 350.673ZM409.064 372.097H400.096V354.162H391.129V372.097H382.161V363.13H373.193V372.097H364.225V345.194H355.258V381.065H409.064V372.097Z" fill="black"/>
<path d="M413.548 228.613H377.677C370.261 228.613 364.226 234.648 364.226 242.065V255.516H346.062C345.124 243.194 340.273 231.494 332.215 222.125L375.05 179.29H409.065C418.956 179.29 427 171.246 427 161.355C426.994 157.328 425.637 153.42 423.145 150.257C420.653 147.094 417.171 144.86 413.257 143.913C411.32 130.963 400.124 121 386.645 121C373.167 121 361.97 130.963 360.033 143.913C356.12 144.86 352.638 147.094 350.146 150.257C347.654 153.42 346.296 157.328 346.29 161.355C346.29 170.668 353.447 178.255 362.54 179.12L325.875 215.785C316.505 207.728 304.806 202.877 292.484 201.938V183.774H305.935C313.352 183.774 319.387 177.739 319.387 170.323V134.452C319.387 127.035 313.352 121 305.935 121H270.065C262.648 121 256.613 127.035 256.613 134.452V170.323C256.613 177.739 262.648 183.774 270.065 183.774H283.516V201.938C271.194 202.876 259.494 207.727 250.125 215.785L228.539 194.195C235.101 186.202 238.684 176.18 238.677 165.839C238.677 141.115 218.563 121 193.839 121C169.115 121 149 141.115 149 165.839C149 190.563 169.115 210.677 193.839 210.677C204.591 210.677 214.465 206.866 222.195 200.535L243.78 222.125C235.724 231.495 230.872 243.194 229.934 255.516H211.774V242.065C211.774 234.648 205.739 228.613 198.323 228.613H162.452C155.035 228.613 149 234.648 149 242.065V277.935C149 285.352 155.035 291.387 162.452 291.387H198.323C205.739 291.387 211.774 285.352 211.774 277.935V264.484H229.938C230.876 276.806 235.727 288.506 243.785 297.875L213.088 328.572L219.428 334.912L250.125 304.215C259.495 312.272 271.194 317.123 283.516 318.062V336.226H270.065C262.648 336.226 256.613 342.261 256.613 349.677V385.548C256.613 392.965 262.648 399 270.065 399H305.935C313.352 399 319.387 392.965 319.387 385.548V349.677C319.387 342.261 313.352 336.226 305.935 336.226H292.484V318.062C304.806 317.124 316.506 312.273 325.875 304.215L349.088 327.428C345.847 327.832 342.864 329.403 340.699 331.848C338.533 334.293 337.332 337.444 337.323 340.71V385.548C337.323 392.965 343.358 399 350.774 399H413.548C420.965 399 427 392.965 427 385.548V340.71C427 333.293 420.965 327.258 413.548 327.258H361.598L332.215 297.875C340.272 288.505 345.123 276.806 346.062 264.484H364.226V277.935C364.226 285.352 370.261 291.387 377.677 291.387H413.548C420.965 291.387 427 285.352 427 277.935V242.065C427 234.648 420.965 228.613 413.548 228.613ZM310.419 156.871H265.581V147.903H310.419V156.871ZM270.065 129.968H305.935C308.411 129.968 310.419 131.981 310.419 134.452V138.935H265.581V134.452C265.581 131.981 267.589 129.968 270.065 129.968ZM265.581 170.323V165.839H310.419V170.323C310.419 172.793 308.411 174.806 305.935 174.806H270.065C267.589 174.806 265.581 172.793 265.581 170.323ZM162.452 237.581H198.323C200.798 237.581 202.806 239.594 202.806 242.065V246.548H157.968V242.065C157.968 239.594 159.977 237.581 162.452 237.581ZM202.806 255.516V264.484H157.968V255.516H202.806ZM198.323 282.419H162.452C159.977 282.419 157.968 280.406 157.968 277.935V273.452H202.806V277.935C202.806 280.406 200.798 282.419 198.323 282.419ZM265.581 363.129H310.419V372.097H265.581V363.129ZM305.935 390.032H270.065C267.589 390.032 265.581 388.019 265.581 385.548V381.065H310.419V385.548C310.419 388.019 308.411 390.032 305.935 390.032ZM310.419 349.677V354.161H265.581V349.677C265.581 347.207 267.589 345.194 270.065 345.194H305.935C308.411 345.194 310.419 347.207 310.419 349.677ZM288 309.323C283.18 309.323 278.046 302.476 274.508 291.387H301.496C297.954 302.476 292.82 309.323 288 309.323ZM272.221 282.419C271.049 276.507 270.359 270.508 270.159 264.484H305.841C305.639 270.508 304.949 276.506 303.779 282.419H272.221ZM238.906 264.484H261.195C261.402 270.846 262.02 276.873 263.029 282.419H244.125C241.247 276.833 239.474 270.743 238.906 264.484ZM288 210.677C292.82 210.677 297.954 217.524 301.492 228.613H274.504C278.046 217.524 283.18 210.677 288 210.677ZM303.779 237.581C304.873 243.002 305.608 249.028 305.841 255.516H270.159C270.361 249.492 271.051 243.494 272.221 237.581H303.779ZM261.195 255.516H238.906C239.477 249.258 241.249 243.168 244.125 237.581H263.029C261.978 243.506 261.365 249.501 261.195 255.516ZM314.805 264.484H337.094C336.523 270.742 334.751 276.832 331.875 282.419H312.971C313.98 276.873 314.603 270.846 314.805 264.484ZM314.805 255.516C314.633 249.501 314.02 243.506 312.971 237.581H331.875C334.749 243.169 336.521 249.258 337.094 255.516H314.805ZM355.258 161.355C355.258 156.409 359.28 152.387 364.226 152.387H368.71V147.903C368.71 138.012 376.754 129.968 386.645 129.968C390.739 129.973 394.709 131.377 397.896 133.946C401.084 136.516 403.298 140.097 404.173 144.096C400.419 145.166 397.116 147.429 394.762 150.543C392.409 153.656 391.134 157.452 391.129 161.355H400.097C400.097 156.409 404.119 152.387 409.065 152.387C414.01 152.387 418.032 156.409 418.032 161.355C418.032 166.301 414.01 170.323 409.065 170.323H364.226C359.28 170.323 355.258 166.301 355.258 161.355ZM326.019 228.613H310.895C309.245 222.806 307.142 217.753 304.658 213.632C312.989 216.628 320.365 221.8 326.019 228.613ZM271.347 213.632C268.867 217.753 266.76 222.806 265.11 228.613H249.986C255.638 221.799 263.015 216.625 271.347 213.632ZM193.839 129.968C213.617 129.968 229.71 146.06 229.71 165.839C229.708 172.177 228.013 178.4 224.8 183.864C220.799 176.992 214.643 171.631 207.286 168.614C210.043 165.458 211.77 161.382 211.77 156.875C211.77 146.984 203.726 138.94 193.834 138.94C183.943 138.94 175.903 146.98 175.903 156.871C175.903 161.382 177.634 165.458 180.387 168.61C173.031 171.628 166.875 176.988 162.873 183.859C159.663 178.396 157.97 172.175 157.968 165.839C157.968 146.06 174.06 129.968 193.839 129.968ZM184.871 156.871C184.871 151.925 188.893 147.903 193.839 147.903C198.784 147.903 202.806 151.925 202.806 156.871C202.806 161.817 198.784 165.839 193.839 165.839C188.893 165.839 184.871 161.817 184.871 156.871ZM168.989 191.648C173.06 181.644 182.898 174.806 193.839 174.806C204.779 174.806 214.617 181.644 218.688 191.648C212.025 198.1 203.114 201.707 193.839 201.707C184.564 201.707 175.652 198.1 168.989 191.648ZM249.981 291.387H265.105C266.755 297.194 268.858 302.247 271.342 306.368C263.011 303.372 255.635 298.2 249.981 291.387ZM304.653 306.368C307.133 302.247 309.24 297.194 310.89 291.387H326.014C320.362 298.201 312.985 303.375 304.653 306.368ZM418.032 340.71V385.548C418.032 388.019 416.023 390.032 413.548 390.032H350.774C348.299 390.032 346.29 388.019 346.29 385.548V340.71C346.29 338.239 348.299 336.226 350.774 336.226H413.548C416.023 336.226 418.032 338.239 418.032 340.71ZM377.677 237.581H413.548C416.023 237.581 418.032 239.594 418.032 242.065V246.548H373.194V242.065C373.194 239.594 375.202 237.581 377.677 237.581ZM418.032 255.516V264.484H373.194V255.516H418.032ZM413.548 282.419H377.677C375.202 282.419 373.194 280.406 373.194 277.935V273.452H418.032V277.935C418.032 280.406 416.023 282.419 413.548 282.419Z" fill="black"/>
</svg>
