<svg width="575" height="575" viewBox="0 0 575 575" fill="none" xmlns="http://www.w3.org/2000/svg">
<rect width="575" height="575" fill="white"/>
<path d="M282.654 217.466C282.654 181.904 313.769 153.077 352.154 153.077C390.54 153.077 421.654 181.904 421.654 217.466C421.654 231.548 416.928 244.956 408.786 255.889C397.078 271.601 384.231 288.527 384.231 308.116V347.581C384.231 351.293 382.757 354.853 380.132 357.478C377.507 360.103 373.947 361.577 370.235 361.577H334.074C330.362 361.577 326.802 360.103 324.177 357.478C321.552 354.853 320.077 351.293 320.077 347.581V308.116C320.077 288.527 307.225 271.601 295.522 255.889C287.209 244.8 282.696 231.325 282.654 217.466Z" fill="#F4D15A"/>
<path d="M373.538 361.577H330.768C327.933 361.577 325.213 360.45 323.208 358.445C321.203 356.44 320.076 353.72 320.076 350.884V308.115H384.23V350.884C384.23 353.72 383.104 356.44 381.098 358.445C379.093 360.45 376.373 361.577 373.538 361.577Z" fill="#616161"/>
<path d="M154.346 233.269C154.346 230.434 155.472 227.714 157.477 225.709C159.483 223.704 162.202 222.577 165.038 222.577H239.884C242.72 222.577 245.44 223.704 247.445 225.709C249.45 227.714 250.576 230.434 250.576 233.269V382.962C250.576 385.798 249.45 388.517 247.445 390.522C245.44 392.528 242.72 393.654 239.884 393.654H165.038C162.202 393.654 159.483 392.528 157.477 390.522C155.472 388.517 154.346 385.798 154.346 382.962V233.269Z" fill="white"/>
<path d="M250.576 361.577H154.346V382.962C154.346 385.798 155.472 388.517 157.477 390.522C159.483 392.528 162.202 393.654 165.038 393.654H239.884C242.72 393.654 245.44 392.528 247.445 390.522C249.45 388.517 250.576 385.798 250.576 382.962V361.577Z" fill="#616161"/>
<path d="M357.5 126.346C357.5 124.928 356.937 123.568 355.934 122.566C354.932 121.563 353.572 121 352.154 121C350.736 121 349.376 121.563 348.374 122.566C347.371 123.568 346.808 124.928 346.808 126.346V137.038C346.808 138.456 347.371 139.816 348.374 140.819C349.376 141.821 350.736 142.385 352.154 142.385C353.572 142.385 354.932 141.821 355.934 140.819C356.937 139.816 357.5 138.456 357.5 137.038V126.346ZM286.434 143.951C285.941 143.44 285.351 143.033 284.698 142.753C284.046 142.473 283.345 142.325 282.635 142.319C281.925 142.313 281.221 142.448 280.564 142.717C279.907 142.986 279.31 143.383 278.808 143.885C278.306 144.387 277.909 144.984 277.64 145.641C277.371 146.298 277.236 147.002 277.242 147.712C277.249 148.421 277.396 149.123 277.676 149.775C277.956 150.427 278.364 151.017 278.874 151.511L286.434 159.07C287.442 160.044 288.793 160.583 290.194 160.57C291.596 160.558 292.937 159.996 293.928 159.005C294.919 158.014 295.482 156.673 295.494 155.271C295.506 153.869 294.967 152.519 293.993 151.511L286.434 143.951ZM422.301 143.951C423.303 144.954 423.866 146.313 423.866 147.731C423.866 149.148 423.303 150.508 422.301 151.511L414.741 159.07C413.733 160.044 412.383 160.583 410.981 160.57C409.579 160.558 408.238 159.996 407.247 159.005C406.256 158.014 405.694 156.673 405.681 155.271C405.669 153.869 406.208 152.519 407.182 151.511L414.741 143.951C415.744 142.949 417.104 142.386 418.521 142.386C419.939 142.386 421.298 142.949 422.301 143.951ZM319.895 130.308C319.714 129.629 319.4 128.994 318.972 128.437C318.545 127.88 318.012 127.412 317.404 127.061C316.796 126.71 316.124 126.483 315.428 126.391C314.732 126.3 314.025 126.346 313.346 126.528C312.668 126.71 312.032 127.023 311.475 127.451C310.918 127.878 310.451 128.411 310.1 129.02C309.749 129.628 309.521 130.299 309.43 130.995C309.338 131.691 309.385 132.399 309.567 133.077L312.336 143.406C312.703 144.775 313.599 145.943 314.828 146.652C316.056 147.361 317.515 147.553 318.885 147.185C320.255 146.818 321.422 145.922 322.131 144.694C322.84 143.466 323.032 142.006 322.665 140.636L319.895 130.308ZM388.38 126.528C389.058 126.709 389.695 127.022 390.252 127.45C390.81 127.877 391.278 128.41 391.629 129.018C391.981 129.626 392.209 130.298 392.301 130.994C392.393 131.691 392.347 132.398 392.165 133.077L389.395 143.406C389.214 144.084 388.9 144.72 388.472 145.277C388.045 145.834 387.512 146.301 386.904 146.652C386.296 147.003 385.624 147.231 384.928 147.322C384.232 147.414 383.525 147.367 382.846 147.185C382.168 147.004 381.532 146.69 380.975 146.262C380.418 145.835 379.951 145.302 379.6 144.694C379.249 144.086 379.021 143.414 378.93 142.718C378.838 142.022 378.885 141.315 379.067 140.636L381.836 130.308C382.018 129.629 382.331 128.994 382.759 128.437C383.186 127.88 383.719 127.412 384.327 127.061C384.936 126.71 385.607 126.482 386.303 126.391C386.999 126.299 387.701 126.346 388.38 126.528ZM335.217 214.852C334.431 216.031 333.207 216.85 331.817 217.128C330.426 217.406 328.982 217.12 327.802 216.333C326.623 215.546 325.804 214.322 325.526 212.932C325.248 211.541 325.535 210.097 326.321 208.918C338.612 190.484 365.696 190.484 377.987 208.918C378.774 210.097 379.06 211.541 378.782 212.932C378.504 214.322 377.685 215.546 376.506 216.333C375.326 217.12 373.882 217.406 372.492 217.128C371.101 216.85 369.878 216.031 369.091 214.852C361.034 202.769 343.274 202.769 335.217 214.852Z" fill="black"/>
<path d="M345.91 225.544C345.123 226.724 343.9 227.542 342.509 227.82C341.119 228.098 339.675 227.812 338.495 227.025C337.315 226.238 336.497 225.015 336.219 223.624C335.941 222.233 336.227 220.789 337.014 219.61C344.215 208.81 360.093 208.81 367.295 219.61C368.082 220.789 368.368 222.233 368.09 223.624C367.812 225.015 366.994 226.238 365.814 227.025C364.634 227.812 363.19 228.098 361.8 227.82C360.409 227.542 359.186 226.724 358.399 225.544C357.713 224.516 356.785 223.674 355.695 223.091C354.606 222.508 353.39 222.203 352.154 222.203C350.919 222.203 349.703 222.508 348.613 223.091C347.524 223.674 346.596 224.516 345.91 225.544Z" fill="black"/>
<path d="M357.5 233.269C357.5 234.687 356.937 236.047 355.934 237.049C354.931 238.052 353.572 238.615 352.154 238.615C350.736 238.615 349.376 238.052 348.373 237.049C347.371 236.047 346.808 234.687 346.808 233.269C346.808 231.851 347.371 230.491 348.373 229.489C349.376 228.486 350.736 227.923 352.154 227.923C353.572 227.923 354.931 228.486 355.934 229.489C356.937 230.491 357.5 231.851 357.5 233.269Z" fill="black"/>
<path fill-rule="evenodd" clip-rule="evenodd" d="M314.731 308.115C314.731 290.639 303.242 275.199 291.24 259.086C282.236 247.074 277.35 232.477 277.308 217.466C277.308 178.578 311.208 147.73 352.154 147.73C393.1 147.73 427 178.578 427 217.466C427 232.756 421.868 247.271 413.068 259.086C401.071 275.199 389.577 290.644 389.577 308.115V350.884C389.577 355.138 387.887 359.217 384.879 362.225C381.871 365.233 377.792 366.923 373.538 366.923H330.769C326.515 366.923 322.436 365.233 319.428 362.225C316.42 359.217 314.731 355.138 314.731 350.884V308.115ZM288 217.466C288 185.234 316.335 158.423 352.154 158.423C387.973 158.423 416.308 185.234 416.308 217.466C416.308 230.35 411.988 242.646 404.493 252.697L403.514 254.017C393.26 267.762 381.167 283.977 379.168 302.769H325.14C323.14 283.977 311.047 267.762 300.793 254.012L299.81 252.697C292.325 242.646 288 230.35 288 217.466ZM326.332 351.451C325.733 350.249 325.422 348.924 325.423 347.58V340.192H378.885V347.58C378.883 349.874 377.971 352.073 376.349 353.695C374.728 355.317 372.528 356.229 370.234 356.231H334.073C332.467 356.231 330.893 355.783 329.526 354.939C328.16 354.095 327.056 352.887 326.337 351.451H326.332ZM325.423 329.5V313.461H378.885V329.5H325.423Z" fill="black"/>
<path d="M190.699 278.177C191.55 279.311 191.915 280.737 191.715 282.14C191.514 283.544 190.764 284.811 189.63 285.661C186.039 288.354 183.387 292.109 182.049 296.393C180.711 300.677 180.754 305.273 182.173 309.531C183.593 313.789 186.316 317.493 189.957 320.117C193.598 322.741 197.972 324.154 202.461 324.154C206.949 324.154 211.323 322.741 214.965 320.117C218.606 317.493 221.329 313.789 222.748 309.531C224.167 305.273 224.211 300.677 222.873 296.393C221.534 292.109 218.882 288.354 215.291 285.661C214.157 284.81 213.408 283.543 213.208 282.139C213.008 280.734 213.373 279.308 214.225 278.174C215.076 277.04 216.344 276.29 217.748 276.09C219.152 275.89 220.578 276.256 221.712 277.107C227.097 281.148 231.074 286.78 233.08 293.205C235.086 299.631 235.02 306.526 232.891 312.912C230.761 319.298 226.676 324.852 221.215 328.788C215.754 332.724 209.193 334.842 202.461 334.842C195.729 334.842 189.168 332.724 183.706 328.788C178.245 324.852 174.16 319.298 172.031 312.912C169.901 306.526 169.835 299.631 171.841 293.205C173.848 286.78 177.825 281.148 183.209 277.107C184.344 276.257 185.769 275.891 187.173 276.092C188.577 276.293 189.843 277.042 190.694 278.177H190.699Z" fill="black"/>
<path d="M202.462 265.346C203.88 265.346 205.24 265.909 206.243 266.912C207.245 267.915 207.808 269.274 207.808 270.692V302.769C207.808 304.187 207.245 305.547 206.243 306.55C205.24 307.552 203.88 308.115 202.462 308.115C201.044 308.115 199.685 307.552 198.682 306.55C197.679 305.547 197.116 304.187 197.116 302.769V270.692C197.116 269.274 197.679 267.915 198.682 266.912C199.685 265.909 201.044 265.346 202.462 265.346ZM191.77 372.269C190.352 372.269 188.992 372.833 187.99 373.835C186.987 374.838 186.424 376.198 186.424 377.615C186.424 379.033 186.987 380.393 187.99 381.396C188.992 382.398 190.352 382.962 191.77 382.962H213.155C214.572 382.962 215.932 382.398 216.935 381.396C217.938 380.393 218.501 379.033 218.501 377.615C218.501 376.198 217.938 374.838 216.935 373.835C215.932 372.833 214.572 372.269 213.155 372.269H191.77Z" fill="black"/>
<path fill-rule="evenodd" clip-rule="evenodd" d="M165.038 217.23C160.785 217.23 156.705 218.92 153.698 221.928C150.69 224.936 149 229.015 149 233.269V382.961C149 387.215 150.69 391.294 153.698 394.302C156.705 397.31 160.785 399 165.038 399H239.885C244.138 399 248.218 397.31 251.226 394.302C254.233 391.294 255.923 387.215 255.923 382.961V233.269C255.923 229.015 254.233 224.936 251.226 221.928C248.218 218.92 244.138 217.23 239.885 217.23H165.038ZM245.231 356.23V233.269C245.231 231.851 244.668 230.491 243.665 229.489C242.662 228.486 241.303 227.923 239.885 227.923H222.349L218.227 240.304C217.873 241.369 217.192 242.296 216.281 242.952C215.37 243.608 214.276 243.962 213.154 243.961H191.769C190.647 243.962 189.553 243.608 188.642 242.952C187.731 242.296 187.05 241.369 186.696 240.304L182.574 227.923H165.038C163.621 227.923 162.261 228.486 161.258 229.489C160.256 230.491 159.692 231.851 159.692 233.269V356.23H245.231ZM159.692 366.923V382.961C159.692 384.379 160.256 385.739 161.258 386.742C162.261 387.744 163.621 388.307 165.038 388.307H239.885C241.303 388.307 242.662 387.744 243.665 386.742C244.668 385.739 245.231 384.379 245.231 382.961V366.923H159.692ZM211.085 227.923H193.838L195.624 233.269H209.299L211.085 227.923Z" fill="black"/>
<path d="M129.406 446.312C126.919 446.312 124.914 445.538 123.391 443.988C121.88 442.439 121.125 440.271 121.125 437.484V421.625C121.125 418.292 121.783 415.74 123.098 413.969C124.426 412.198 126.581 411.312 129.562 411.312C131.19 411.312 132.635 411.612 133.898 412.211C135.174 412.81 136.177 413.708 136.906 414.906C137.635 416.091 138 417.589 138 419.398V425.336H131.164V420.258C131.164 419.229 131.034 418.539 130.773 418.188C130.513 417.823 130.109 417.641 129.562 417.641C128.924 417.641 128.495 417.875 128.273 418.344C128.052 418.799 127.941 419.411 127.941 420.18V437.387C127.941 438.337 128.078 439.008 128.352 439.398C128.638 439.789 129.042 439.984 129.562 439.984C130.148 439.984 130.559 439.743 130.793 439.262C131.04 438.78 131.164 438.155 131.164 437.387V431.195H138.078V437.699C138.078 440.72 137.316 442.914 135.793 444.281C134.27 445.635 132.141 446.312 129.406 446.312ZM148.586 446.312C145.839 446.312 143.736 445.486 142.277 443.832C140.832 442.165 140.109 439.763 140.109 436.625V420.297C140.109 417.354 140.826 415.121 142.258 413.598C143.703 412.074 145.812 411.312 148.586 411.312C151.359 411.312 153.462 412.074 154.895 413.598C156.34 415.121 157.062 417.354 157.062 420.297V436.625C157.062 439.763 156.333 442.165 154.875 443.832C153.43 445.486 151.333 446.312 148.586 446.312ZM148.645 439.984C149.686 439.984 150.207 438.975 150.207 436.957V420.18C150.207 418.487 149.699 417.641 148.684 417.641C147.538 417.641 146.965 418.507 146.965 420.238V436.996C146.965 438.064 147.095 438.832 147.355 439.301C147.616 439.757 148.046 439.984 148.645 439.984ZM159.836 446V411.625H166.906L170.07 428.09V411.625H176.711V446H169.992L166.555 428.812V446H159.836ZM182.707 446V418.227H178.625V411.625H193.664V418.227H189.582V446H182.707ZM195.578 446V411.625H206.125C207.883 411.625 209.211 412.029 210.109 412.836C211.008 413.63 211.607 414.75 211.906 416.195C212.219 417.628 212.375 419.314 212.375 421.254C212.375 423.129 212.134 424.626 211.652 425.746C211.184 426.866 210.292 427.641 208.977 428.07C210.057 428.292 210.812 428.832 211.242 429.691C211.685 430.538 211.906 431.638 211.906 432.992V446H205.129V432.543C205.129 431.54 204.921 430.922 204.504 430.688C204.1 430.44 203.443 430.316 202.531 430.316V446H195.578ZM202.57 424.359H204.23C205.181 424.359 205.656 423.324 205.656 421.254C205.656 419.913 205.552 419.034 205.344 418.617C205.135 418.201 204.745 417.992 204.172 417.992H202.57V424.359ZM222.844 446.312C220.096 446.312 217.993 445.486 216.535 443.832C215.09 442.165 214.367 439.763 214.367 436.625V420.297C214.367 417.354 215.083 415.121 216.516 413.598C217.961 412.074 220.07 411.312 222.844 411.312C225.617 411.312 227.72 412.074 229.152 413.598C230.598 415.121 231.32 417.354 231.32 420.297V436.625C231.32 439.763 230.591 442.165 229.133 443.832C227.688 445.486 225.591 446.312 222.844 446.312ZM222.902 439.984C223.944 439.984 224.465 438.975 224.465 436.957V420.18C224.465 418.487 223.957 417.641 222.941 417.641C221.796 417.641 221.223 418.507 221.223 420.238V436.996C221.223 438.064 221.353 438.832 221.613 439.301C221.874 439.757 222.303 439.984 222.902 439.984ZM234.094 446V411.625H240.969V440.141H248.039V446H234.094ZM259.367 446V411.625H268.82C271.294 411.625 273.156 412.315 274.406 413.695C275.656 415.062 276.281 417.068 276.281 419.711V435.805C276.281 439.06 275.708 441.573 274.562 443.344C273.43 445.115 271.438 446 268.586 446H259.367ZM266.281 439.926H267.473C268.736 439.926 269.367 439.314 269.367 438.09V420.355C269.367 419.21 269.211 418.474 268.898 418.148C268.599 417.81 267.98 417.641 267.043 417.641H266.281V439.926ZM279.094 446V411.625H292.844V418.266H286.086V424.965H292.57V431.43H286.086V439.301H293.293V446H279.094Z" fill="#212121"/>
<path d="M307.902 446V418.227H303.82V411.625H318.859V418.227H314.777V446H307.902ZM320.461 446V411.625H327.102V446H320.461ZM329.836 446V411.625H340.383C342.141 411.625 343.469 412.029 344.367 412.836C345.266 413.63 345.865 414.75 346.164 416.195C346.477 417.628 346.633 419.314 346.633 421.254C346.633 423.129 346.392 424.626 345.91 425.746C345.441 426.866 344.549 427.641 343.234 428.07C344.315 428.292 345.07 428.832 345.5 429.691C345.943 430.538 346.164 431.638 346.164 432.992V446H339.387V432.543C339.387 431.54 339.178 430.922 338.762 430.688C338.358 430.44 337.701 430.316 336.789 430.316V446H329.836ZM336.828 424.359H338.488C339.439 424.359 339.914 423.324 339.914 421.254C339.914 419.913 339.81 419.034 339.602 418.617C339.393 418.201 339.003 417.992 338.43 417.992H336.828V424.359ZM347.961 446L351.281 411.625H362.941L366.203 446H359.699L359.211 440.453H355.07L354.641 446H347.961ZM355.559 434.965H358.684L357.18 417.484H356.867L355.559 434.965ZM376.477 446.312C373.339 446.312 371.073 445.531 369.68 443.969C368.299 442.406 367.609 439.919 367.609 436.508V433.148H374.406V437.445C374.406 438.24 374.523 438.865 374.758 439.32C375.005 439.763 375.428 439.984 376.027 439.984C376.652 439.984 377.082 439.802 377.316 439.438C377.564 439.073 377.688 438.474 377.688 437.641C377.688 436.586 377.583 435.707 377.375 435.004C377.167 434.288 376.802 433.611 376.281 432.973C375.773 432.322 375.064 431.566 374.152 430.707L371.066 427.777C368.762 425.603 367.609 423.116 367.609 420.316C367.609 417.387 368.286 415.154 369.641 413.617C371.008 412.081 372.98 411.312 375.559 411.312C378.71 411.312 380.943 412.152 382.258 413.832C383.586 415.512 384.25 418.064 384.25 421.488H377.258V419.125C377.258 418.656 377.121 418.292 376.848 418.031C376.587 417.771 376.229 417.641 375.773 417.641C375.227 417.641 374.823 417.797 374.562 418.109C374.315 418.409 374.191 418.799 374.191 419.281C374.191 419.763 374.322 420.284 374.582 420.844C374.842 421.404 375.357 422.048 376.125 422.777L380.09 426.586C380.884 427.341 381.613 428.142 382.277 428.988C382.941 429.822 383.475 430.798 383.879 431.918C384.283 433.025 384.484 434.379 384.484 435.98C384.484 439.21 383.885 441.742 382.688 443.578C381.503 445.401 379.432 446.312 376.477 446.312ZM396.164 446V411.625H403.039V440.141H410.109V446H396.164ZM412.062 446V411.625H425.812V418.266H419.055V424.965H425.539V431.43H419.055V439.301H426.262V446H412.062ZM428.547 446V411.625H438C440.474 411.625 442.336 412.315 443.586 413.695C444.836 415.062 445.461 417.068 445.461 419.711V435.805C445.461 439.06 444.888 441.573 443.742 443.344C442.609 445.115 440.617 446 437.766 446H428.547ZM435.461 439.926H436.652C437.915 439.926 438.547 439.314 438.547 438.09V420.355C438.547 419.21 438.391 418.474 438.078 418.148C437.779 417.81 437.16 417.641 436.223 417.641H435.461V439.926Z" fill="#F4D15A"/>
<path d="M230.354 476.836C229.325 476.79 228.436 476.527 227.688 476.045C226.945 475.563 226.372 474.906 225.969 474.072C225.565 473.239 225.363 472.275 225.363 471.182V462.842C225.363 461.071 225.773 459.701 226.594 458.73C227.414 457.754 228.667 457.243 230.354 457.197V459.805C229.859 459.889 229.507 460.088 229.299 460.4C229.097 460.706 228.996 461.149 228.996 461.729V472.275C228.996 472.764 229.126 473.158 229.387 473.457C229.647 473.75 229.969 473.949 230.354 474.053V476.836ZM231.467 475V457.812H236.008C236.958 457.812 237.71 458.024 238.264 458.447C238.824 458.87 239.224 459.473 239.465 460.254C239.706 461.035 239.826 461.966 239.826 463.047C239.826 464.089 239.725 464.997 239.523 465.771C239.322 466.54 238.96 467.135 238.439 467.559C237.925 467.982 237.193 468.193 236.242 468.193H234.846V475H231.467ZM234.846 465.107H235.041C235.679 465.107 236.07 464.928 236.213 464.57C236.356 464.212 236.428 463.685 236.428 462.988C236.428 462.337 236.356 461.836 236.213 461.484C236.076 461.126 235.747 460.947 235.227 460.947H234.846V465.107ZM240.158 475L241.818 457.812H247.648L249.279 475H246.027L245.783 472.227H243.713L243.498 475H240.158ZM243.957 469.482H245.52L244.768 460.742H244.611L243.957 469.482ZM250.334 475V457.812H255.607C256.486 457.812 257.15 458.014 257.6 458.418C258.049 458.815 258.348 459.375 258.498 460.098C258.654 460.814 258.732 461.657 258.732 462.627C258.732 463.564 258.612 464.313 258.371 464.873C258.137 465.433 257.691 465.82 257.033 466.035C257.574 466.146 257.951 466.416 258.166 466.846C258.387 467.269 258.498 467.819 258.498 468.496V475H255.109V468.271C255.109 467.77 255.005 467.461 254.797 467.344C254.595 467.22 254.266 467.158 253.811 467.158V475H250.334ZM253.83 464.18H254.66C255.135 464.18 255.373 463.662 255.373 462.627C255.373 461.956 255.321 461.517 255.217 461.309C255.113 461.1 254.917 460.996 254.631 460.996H253.83V464.18ZM259.396 475L261.057 457.812H266.887L268.518 475H265.266L265.021 472.227H262.951L262.736 475H259.396ZM263.195 469.482H264.758L264.006 460.742H263.85L263.195 469.482ZM275.607 475L273.762 457.812H277.121L278.068 468.662L279.035 457.812H282.238L283.156 468.662L284.074 457.812H287.473L285.598 475H281.477L280.617 466.729L279.797 475H275.607ZM288.342 475V457.812H291.662V475H288.342ZM293.029 475V457.812H296.564L298.146 466.045V457.812H301.467V475H298.107L296.389 466.406V475H293.029ZM302.99 475V457.812H307.717C308.954 457.812 309.885 458.158 310.51 458.848C311.135 459.531 311.447 460.534 311.447 461.855V469.902C311.447 471.53 311.161 472.786 310.588 473.672C310.021 474.557 309.025 475 307.6 475H302.99ZM306.447 471.963H307.043C307.674 471.963 307.99 471.657 307.99 471.045V462.178C307.99 461.605 307.912 461.237 307.756 461.074C307.606 460.905 307.297 460.82 306.828 460.82H306.447V471.963ZM316.955 475.156C315.581 475.156 314.53 474.743 313.801 473.916C313.078 473.083 312.717 471.882 312.717 470.312V462.148C312.717 460.677 313.075 459.561 313.791 458.799C314.514 458.037 315.568 457.656 316.955 457.656C318.342 457.656 319.393 458.037 320.109 458.799C320.832 459.561 321.193 460.677 321.193 462.148V470.312C321.193 471.882 320.829 473.083 320.1 473.916C319.377 474.743 318.329 475.156 316.955 475.156ZM316.984 471.992C317.505 471.992 317.766 471.488 317.766 470.479V462.09C317.766 461.243 317.512 460.82 317.004 460.82C316.431 460.82 316.145 461.253 316.145 462.119V470.498C316.145 471.032 316.21 471.416 316.34 471.65C316.47 471.878 316.685 471.992 316.984 471.992ZM323.928 475L322.082 457.812H325.441L326.389 468.662L327.355 457.812H330.559L331.477 468.662L332.395 457.812H335.793L333.918 475H329.797L328.938 466.729L328.117 475H323.928ZM340.9 475.156C339.331 475.156 338.199 474.766 337.502 473.984C336.812 473.203 336.467 471.96 336.467 470.254V468.574H339.865V470.723C339.865 471.12 339.924 471.432 340.041 471.66C340.165 471.882 340.376 471.992 340.676 471.992C340.988 471.992 341.203 471.901 341.32 471.719C341.444 471.536 341.506 471.237 341.506 470.82C341.506 470.293 341.454 469.854 341.35 469.502C341.245 469.144 341.063 468.805 340.803 468.486C340.549 468.161 340.194 467.783 339.738 467.354L338.195 465.889C337.043 464.801 336.467 463.558 336.467 462.158C336.467 460.693 336.805 459.577 337.482 458.809C338.166 458.04 339.152 457.656 340.441 457.656C342.017 457.656 343.133 458.076 343.791 458.916C344.455 459.756 344.787 461.032 344.787 462.744H341.291V461.562C341.291 461.328 341.223 461.146 341.086 461.016C340.956 460.885 340.777 460.82 340.549 460.82C340.275 460.82 340.074 460.898 339.943 461.055C339.82 461.204 339.758 461.4 339.758 461.641C339.758 461.882 339.823 462.142 339.953 462.422C340.083 462.702 340.34 463.024 340.725 463.389L342.707 465.293C343.104 465.671 343.469 466.071 343.801 466.494C344.133 466.911 344.4 467.399 344.602 467.959C344.803 468.512 344.904 469.189 344.904 469.99C344.904 471.605 344.605 472.871 344.006 473.789C343.413 474.701 342.378 475.156 340.9 475.156ZM345.646 476.836V474.053C346.031 473.949 346.353 473.75 346.613 473.457C346.874 473.158 347.004 472.764 347.004 472.275V461.729C347.004 461.149 346.9 460.706 346.691 460.4C346.49 460.088 346.141 459.889 345.646 459.805V457.197C347.333 457.243 348.586 457.754 349.406 458.73C350.227 459.701 350.637 461.071 350.637 462.842V471.182C350.637 472.275 350.435 473.249 350.031 474.102C349.628 474.954 349.051 475.622 348.303 476.104C347.561 476.592 346.675 476.836 345.646 476.836Z" fill="#464646"/>
</svg>
