<svg width="575" height="575" viewBox="0 0 575 575" fill="none" xmlns="http://www.w3.org/2000/svg">
<rect width="575" height="575" fill="white"/>
<g clip-path="url(#clip0_117_126)">
<mask id="mask0_117_126" style="mask-type:luminance" maskUnits="userSpaceOnUse" x="121" y="121" width="334" height="334">
<path d="M121 121.001H454.999V455H121V121.001Z" fill="white"/>
</mask>
<g mask="url(#mask0_117_126)">
<path d="M229.289 269.644H187.063C153.337 269.644 125.893 297.087 125.893 330.819C125.893 364.546 153.337 391.99 187.063 391.99H353.592" stroke="#212121" stroke-width="10" stroke-miterlimit="10" stroke-linecap="round" stroke-linejoin="round"/>
<path d="M224.239 186.438H388.937C411.872 186.438 430.536 205.101 430.536 228.044C430.536 250.98 411.872 269.645 388.937 269.645H346.71" stroke="#212121" stroke-width="10" stroke-miterlimit="10" stroke-linecap="round" stroke-linejoin="round"/>
<path d="M267.516 372.42H350.428" stroke="#212121" stroke-width="10" stroke-miterlimit="10" stroke-linecap="round" stroke-linejoin="round"/>
<path d="M229.289 289.214H187.063C164.126 289.214 145.463 307.877 145.463 330.814C145.463 353.756 164.126 372.42 187.063 372.42H244.684" stroke="#212121" stroke-width="10" stroke-miterlimit="10" stroke-linecap="round" stroke-linejoin="round"/>
<path d="M224.879 166.867H388.936C422.662 166.867 450.106 194.311 450.106 228.044C450.106 261.77 422.662 289.214 388.936 289.214H346.71" stroke="#212121" stroke-width="10" stroke-miterlimit="10" stroke-linecap="round" stroke-linejoin="round"/>
<path d="M156.354 129.823C162.323 127.292 168.889 125.894 175.785 125.894C203.339 125.894 225.677 148.231 225.677 175.785C225.677 205.484 188.627 240.378 178.383 249.458C177.666 250.094 176.742 250.445 175.784 250.445C174.827 250.445 173.902 250.095 173.185 249.459C162.928 240.381 125.822 205.486 125.893 175.785C125.923 163.279 130.527 151.849 138.122 143.093" stroke="#212121" stroke-width="10" stroke-miterlimit="10" stroke-linecap="round" stroke-linejoin="round"/>
<path d="M201.63 176.654C201.63 190.928 190.059 202.5 175.784 202.5C161.51 202.5 149.938 190.928 149.938 176.654C149.938 162.379 161.51 150.808 175.784 150.808C190.059 150.808 201.63 162.379 201.63 176.654Z" stroke="#212121" stroke-width="10" stroke-miterlimit="10" stroke-linecap="round" stroke-linejoin="round"/>
<path d="M450.107 375.447C450.107 405.145 413.058 440.039 402.813 449.12C402.096 449.756 401.172 450.107 400.214 450.107C399.257 450.107 398.332 449.756 397.616 449.121C387.358 440.043 350.252 405.148 350.323 375.447C350.389 347.893 372.66 325.555 400.215 325.555C427.769 325.555 450.107 347.893 450.107 375.447Z" stroke="#212121" stroke-width="10" stroke-miterlimit="10" stroke-linecap="round" stroke-linejoin="round"/>
<path d="M426.061 376.314C426.061 390.589 414.489 402.16 400.215 402.16C385.941 402.16 374.369 390.589 374.369 376.314C374.369 362.04 385.941 350.469 400.215 350.469C414.489 350.469 426.061 362.04 426.061 376.314Z" stroke="#212121" stroke-width="10" stroke-miterlimit="10" stroke-linecap="round" stroke-linejoin="round"/>
<path d="M258.644 317.936V333.737C258.644 339.138 254.261 343.522 248.859 343.522C243.458 343.522 239.074 339.138 239.074 333.737V317.525" stroke="#FF6200" stroke-width="10" stroke-miterlimit="10" stroke-linecap="round" stroke-linejoin="round"/>
<path d="M336.926 317.525V333.737C336.926 339.138 332.542 343.522 327.141 343.522C321.739 343.522 317.355 339.138 317.355 333.737V317.936" stroke="#FF6200" stroke-width="10" stroke-miterlimit="10" stroke-linecap="round" stroke-linejoin="round"/>
<path d="M333.664 317.937H242.336C235.13 317.937 229.289 312.095 229.289 304.89V227.261C229.289 220.055 235.13 214.214 242.336 214.214H333.664C340.87 214.214 346.711 220.055 346.711 227.261V304.89C346.711 312.095 340.87 317.937 333.664 317.937Z" stroke="#FF6200" stroke-width="10" stroke-miterlimit="10" stroke-linecap="round" stroke-linejoin="round"/>
<path d="M229.289 268.841H346.711" stroke="#FF6200" stroke-width="10" stroke-miterlimit="10" stroke-linecap="round" stroke-linejoin="round"/>
<path d="M253.752 298.281C251.054 298.281 248.859 296.087 248.859 293.389C248.859 290.691 251.054 288.496 253.752 288.496C256.45 288.496 258.645 290.691 258.645 293.389C258.645 296.087 256.45 298.281 253.752 298.281Z" fill="#FF6200"/>
<path d="M322.248 298.281C319.549 298.281 317.355 296.087 317.355 293.389C317.355 290.691 319.549 288.496 322.248 288.496C324.947 288.496 327.141 290.691 327.141 293.389C327.141 296.087 324.947 298.281 322.248 298.281Z" fill="#FF6200"/>
<path d="M273.322 293.389H302.678" stroke="#FF6200" stroke-width="10" stroke-miterlimit="10" stroke-linecap="round" stroke-linejoin="round"/>
</g>
<path d="M130.523 444V409.625H144.273V416.266H137.516V422.965H144V429.43H137.516V437.301H144.723V444H130.523ZM155.172 444.312C152.034 444.312 149.768 443.531 148.375 441.969C146.995 440.406 146.305 437.919 146.305 434.508V431.148H153.102V435.445C153.102 436.24 153.219 436.865 153.453 437.32C153.701 437.763 154.124 437.984 154.723 437.984C155.348 437.984 155.777 437.802 156.012 437.438C156.259 437.073 156.383 436.474 156.383 435.641C156.383 434.586 156.279 433.707 156.07 433.004C155.862 432.288 155.497 431.611 154.977 430.973C154.469 430.322 153.759 429.566 152.848 428.707L149.762 425.777C147.457 423.603 146.305 421.116 146.305 418.316C146.305 415.387 146.982 413.154 148.336 411.617C149.703 410.081 151.676 409.312 154.254 409.312C157.405 409.312 159.638 410.152 160.953 411.832C162.281 413.512 162.945 416.064 162.945 419.488H155.953V417.125C155.953 416.656 155.816 416.292 155.543 416.031C155.283 415.771 154.924 415.641 154.469 415.641C153.922 415.641 153.518 415.797 153.258 416.109C153.01 416.409 152.887 416.799 152.887 417.281C152.887 417.763 153.017 418.284 153.277 418.844C153.538 419.404 154.052 420.048 154.82 420.777L158.785 424.586C159.579 425.341 160.309 426.142 160.973 426.988C161.637 427.822 162.171 428.798 162.574 429.918C162.978 431.025 163.18 432.379 163.18 433.98C163.18 437.21 162.581 439.742 161.383 441.578C160.198 443.401 158.128 444.312 155.172 444.312ZM173.492 444.312C171.005 444.312 169 443.538 167.477 441.988C165.966 440.439 165.211 438.271 165.211 435.484V419.625C165.211 416.292 165.868 413.74 167.184 411.969C168.512 410.198 170.667 409.312 173.648 409.312C175.276 409.312 176.721 409.612 177.984 410.211C179.26 410.81 180.263 411.708 180.992 412.906C181.721 414.091 182.086 415.589 182.086 417.398V423.336H175.25V418.258C175.25 417.229 175.12 416.539 174.859 416.188C174.599 415.823 174.195 415.641 173.648 415.641C173.01 415.641 172.581 415.875 172.359 416.344C172.138 416.799 172.027 417.411 172.027 418.18V435.387C172.027 436.337 172.164 437.008 172.438 437.398C172.724 437.789 173.128 437.984 173.648 437.984C174.234 437.984 174.645 437.743 174.879 437.262C175.126 436.78 175.25 436.155 175.25 435.387V429.195H182.164V435.699C182.164 438.72 181.402 440.914 179.879 442.281C178.355 443.635 176.227 444.312 173.492 444.312ZM192.672 444.312C189.924 444.312 187.822 443.486 186.363 441.832C184.918 440.165 184.195 437.763 184.195 434.625V418.297C184.195 415.354 184.911 413.121 186.344 411.598C187.789 410.074 189.898 409.312 192.672 409.312C195.445 409.312 197.548 410.074 198.98 411.598C200.426 413.121 201.148 415.354 201.148 418.297V434.625C201.148 437.763 200.419 440.165 198.961 441.832C197.516 443.486 195.419 444.312 192.672 444.312ZM192.73 437.984C193.772 437.984 194.293 436.975 194.293 434.957V418.18C194.293 416.487 193.785 415.641 192.77 415.641C191.624 415.641 191.051 416.507 191.051 418.238V434.996C191.051 436.064 191.181 436.832 191.441 437.301C191.702 437.757 192.132 437.984 192.73 437.984ZM203.922 444V409.625H210.797V438.141H217.867V444H203.922ZM218.883 444L222.203 409.625H233.863L237.125 444H230.621L230.133 438.453H225.992L225.562 444H218.883ZM226.48 432.965H229.605L228.102 415.484H227.789L226.48 432.965ZM239.234 444V409.625H249.781C251.539 409.625 252.867 410.029 253.766 410.836C254.664 411.63 255.263 412.75 255.562 414.195C255.875 415.628 256.031 417.314 256.031 419.254C256.031 421.129 255.79 422.626 255.309 423.746C254.84 424.866 253.948 425.641 252.633 426.07C253.714 426.292 254.469 426.832 254.898 427.691C255.341 428.538 255.562 429.638 255.562 430.992V444H248.785V430.543C248.785 429.54 248.577 428.922 248.16 428.688C247.757 428.44 247.099 428.316 246.188 428.316V444H239.234ZM246.227 422.359H247.887C248.837 422.359 249.312 421.324 249.312 419.254C249.312 417.913 249.208 417.034 249 416.617C248.792 416.201 248.401 415.992 247.828 415.992H246.227V422.359ZM258.297 444V409.625H272.047V416.266H265.289V422.965H271.773V429.43H265.289V437.301H272.496V444H258.297ZM282.945 444.312C279.807 444.312 277.542 443.531 276.148 441.969C274.768 440.406 274.078 437.919 274.078 434.508V431.148H280.875V435.445C280.875 436.24 280.992 436.865 281.227 437.32C281.474 437.763 281.897 437.984 282.496 437.984C283.121 437.984 283.551 437.802 283.785 437.438C284.033 437.073 284.156 436.474 284.156 435.641C284.156 434.586 284.052 433.707 283.844 433.004C283.635 432.288 283.271 431.611 282.75 430.973C282.242 430.322 281.533 429.566 280.621 428.707L277.535 425.777C275.23 423.603 274.078 421.116 274.078 418.316C274.078 415.387 274.755 413.154 276.109 411.617C277.477 410.081 279.449 409.312 282.027 409.312C285.178 409.312 287.411 410.152 288.727 411.832C290.055 413.512 290.719 416.064 290.719 419.488H283.727V417.125C283.727 416.656 283.59 416.292 283.316 416.031C283.056 415.771 282.698 415.641 282.242 415.641C281.695 415.641 281.292 415.797 281.031 416.109C280.784 416.409 280.66 416.799 280.66 417.281C280.66 417.763 280.79 418.284 281.051 418.844C281.311 419.404 281.826 420.048 282.594 420.777L286.559 424.586C287.353 425.341 288.082 426.142 288.746 426.988C289.41 427.822 289.944 428.798 290.348 429.918C290.751 431.025 290.953 432.379 290.953 433.98C290.953 437.21 290.354 439.742 289.156 441.578C287.971 443.401 285.901 444.312 282.945 444.312Z" fill="#FF6200"/>
<path d="M293.258 444V409.625H302.711C305.185 409.625 307.047 410.315 308.297 411.695C309.547 413.062 310.172 415.068 310.172 417.711V433.805C310.172 437.06 309.599 439.573 308.453 441.344C307.32 443.115 305.328 444 302.477 444H293.258ZM300.172 437.926H301.363C302.626 437.926 303.258 437.314 303.258 436.09V418.355C303.258 417.21 303.102 416.474 302.789 416.148C302.49 415.81 301.871 415.641 300.934 415.641H300.172V437.926ZM312.984 444V409.625H322.301C324.801 409.625 326.617 410.237 327.75 411.461C328.896 412.672 329.469 414.677 329.469 417.477V418.98C329.469 420.595 329.176 421.904 328.59 422.906C328.017 423.909 327.138 424.566 325.953 424.879C327.503 425.27 328.538 426.188 329.059 427.633C329.592 429.065 329.859 430.816 329.859 432.887C329.859 435.113 329.651 437.06 329.234 438.727C328.818 440.393 328.062 441.689 326.969 442.613C325.875 443.538 324.319 444 322.301 444H312.984ZM319.703 422.574H321.109C321.747 422.574 322.158 422.327 322.34 421.832C322.522 421.337 322.613 420.745 322.613 420.055V416.598C322.613 415.491 322.125 414.938 321.148 414.938H319.703V422.574ZM320.387 437.945C322.171 437.945 323.062 437.099 323.062 435.406V431.109C323.062 430.133 322.913 429.365 322.613 428.805C322.327 428.232 321.78 427.945 320.973 427.945H319.703V437.906C319.99 437.932 320.217 437.945 320.387 437.945Z" fill="#212121"/>
</g>
<defs>
<clipPath id="clip0_117_126">
<rect width="334" height="334" fill="white" transform="translate(121 121)"/>
</clipPath>
</defs>
</svg>
