<svg width="575" height="575" viewBox="0 0 575 575" fill="none" xmlns="http://www.w3.org/2000/svg">
<rect width="575" height="575" fill="white"/>
<g clip-path="url(#clip0_122_184)">
<path d="M245.589 363.157C244.477 372.601 237.112 374.943 235.205 376.794H313.966C312.23 375.109 304.689 372.555 303.581 363.156L301.049 341.097H248.122L245.589 363.157Z" fill="#DDDDDD"/>
<path d="M265.582 363.157L268.114 341.097H248.121L245.589 363.157C244.477 372.601 237.112 374.943 235.205 376.794H255.197L259.717 373.638C262.97 371.365 265.108 367.175 265.582 363.157Z" fill="#CECCCA"/>
<path d="M322.399 376.312H226.77C222.382 376.312 218.792 379.903 218.792 384.291C218.792 388.679 222.382 392.269 226.77 392.269H322.398C326.787 392.269 330.377 388.679 330.377 384.291C330.377 379.903 326.787 376.312 322.399 376.312Z" fill="#EFEFEF"/>
<path d="M248.505 384.291C248.505 379.903 252.096 376.313 256.484 376.313H226.77C222.382 376.313 218.792 379.903 218.792 384.291C218.792 388.68 222.382 392.27 226.77 392.27H256.484C252.096 392.27 248.505 388.68 248.505 384.291Z" fill="#DDDDDD"/>
<path d="M332.305 261.329C332.305 253.418 338.718 247.004 346.63 247.004H398.335V147.423C398.335 138.639 391.148 131.451 382.363 131.451H167.244C158.46 131.451 151.272 138.638 151.272 147.423V325.676C151.272 334.46 158.459 341.648 167.244 341.648H332.305V261.329Z" fill="#EFEFEF"/>
<path d="M180.986 325.676V147.423C180.986 138.639 188.173 131.451 196.957 131.451H167.244C158.46 131.451 151.272 138.638 151.272 147.423V325.676C151.272 334.46 158.459 341.648 167.244 341.648H196.957C188.174 341.647 180.986 334.46 180.986 325.676Z" fill="#DDDDDD"/>
<path d="M332.305 261.329C332.305 253.418 338.718 247.004 346.63 247.004H398.335V147.423C398.335 138.639 391.148 131.451 382.363 131.451H167.244C158.46 131.451 151.272 138.638 151.272 147.423V309.182H332.305V261.329H332.305Z" fill="#647892"/>
<path d="M180.986 147.423C180.986 138.639 188.173 131.451 196.957 131.451H167.244C158.479 131.451 151.272 138.636 151.272 147.423V309.182H180.986V147.423Z" fill="#4D6682"/>
<path d="M167.229 177.122V289.949C167.229 290.672 167.517 291.365 168.028 291.877C168.539 292.388 169.232 292.675 169.955 292.675H331.754V261.329C331.754 253.418 338.168 247.004 346.08 247.004H381.828V177.122H167.229Z" fill="#A4D9F4"/>
<path d="M180.985 177.122H167.229V289.949C167.229 290.672 167.517 291.365 168.028 291.877C168.539 292.388 169.232 292.675 169.955 292.675H180.985V177.122Z" fill="#77CFF2"/>
<path d="M237.483 211.237L246.585 249.755H299.174C299.953 249.755 300.71 249.494 301.323 249.013C301.936 248.533 302.371 247.86 302.557 247.104L310.839 213.434C310.897 213.17 310.895 212.896 310.833 212.633C310.771 212.37 310.651 212.124 310.481 211.913C310.312 211.702 310.097 211.532 309.853 211.416C309.609 211.299 309.342 211.238 309.072 211.238L237.483 211.237Z" fill="#FAC149"/>
<path d="M379.102 147.409H169.955C169.597 147.409 169.243 147.479 168.912 147.616C168.581 147.753 168.281 147.954 168.028 148.207C167.775 148.46 167.574 148.76 167.437 149.091C167.3 149.422 167.229 149.776 167.229 150.134V178.773H381.827V150.134C381.827 149.411 381.54 148.718 381.029 148.207C380.518 147.696 379.825 147.409 379.102 147.409Z" fill="#EFEFEF"/>
<path d="M180.985 147.423L180.986 147.409H169.955C169.597 147.409 169.242 147.479 168.912 147.616C168.581 147.753 168.281 147.954 168.028 148.207C167.774 148.46 167.574 148.76 167.437 149.091C167.3 149.422 167.229 149.776 167.229 150.134V178.773H180.986L180.985 147.423Z" fill="#DDDDDD"/>
<path d="M409.871 245.353H344.429C336.518 245.353 330.104 251.767 330.104 259.678V377.944C330.104 385.856 336.517 392.27 344.429 392.27H409.871C417.783 392.27 424.197 385.856 424.197 377.944V259.678C424.197 251.767 417.783 245.353 409.871 245.353Z" fill="#EFEFEF"/>
<path d="M344.456 377.944V259.678C344.456 251.767 350.869 245.353 358.781 245.353H344.429C336.518 245.353 330.104 251.766 330.104 259.678V377.944C330.104 385.856 336.517 392.27 344.429 392.27H358.781C350.869 392.27 344.456 385.856 344.456 377.944Z" fill="#DDDDDD"/>
<path d="M410.44 376.29C410.44 376.734 410.264 377.159 409.95 377.473C409.636 377.787 409.211 377.963 408.767 377.963H346.083C345.639 377.963 345.214 377.787 344.9 377.473C344.586 377.159 344.41 376.734 344.41 376.29V261.332C344.41 260.889 344.586 260.463 344.9 260.15C345.214 259.836 345.639 259.66 346.083 259.66H358.857C359.404 259.66 359.928 259.877 360.314 260.263C360.701 260.65 360.918 261.174 360.918 261.72V267.096C360.918 268.188 361.352 269.236 362.124 270.008C362.896 270.781 363.944 271.215 365.036 271.215H391.147C393.293 271.215 395.033 269.475 395.033 267.329V261.739C395.033 261.188 395.252 260.659 395.641 260.269C396.031 259.879 396.56 259.66 397.111 259.66H408.767C409.21 259.66 409.636 259.836 409.949 260.15C410.263 260.464 410.439 260.889 410.439 261.333L410.44 376.29Z" fill="#3997EE"/>
<path d="M358.441 376.29V261.332C358.441 260.621 358.886 260.018 359.512 259.776C359.302 259.702 359.08 259.663 358.857 259.66H346.083C345.639 259.66 345.214 259.836 344.9 260.15C344.586 260.464 344.41 260.889 344.41 261.333V376.291C344.41 376.735 344.586 377.16 344.9 377.474C345.214 377.788 345.639 377.964 346.083 377.964H360.114C359.671 377.964 359.245 377.787 358.931 377.473C358.618 377.16 358.441 376.734 358.441 376.29Z" fill="#1E88D8"/>
<path d="M256.368 276.715C260.318 276.715 263.521 273.512 263.521 269.562C263.521 265.611 260.318 262.409 256.368 262.409C252.417 262.409 249.215 265.611 249.215 269.562C249.215 273.512 252.417 276.715 256.368 276.715Z" fill="#647892"/>
<path d="M297.086 276.715C301.036 276.715 304.239 273.512 304.239 269.562C304.239 265.611 301.036 262.409 297.086 262.409C293.135 262.409 289.933 265.611 289.933 269.562C289.933 273.512 293.135 276.715 297.086 276.715Z" fill="#647892"/>
<path d="M358.458 255.184H346.008C342.811 255.184 340.209 257.786 340.209 260.983V376.46C340.209 379.658 342.811 382.26 346.008 382.26H408.832C412.03 382.26 414.632 379.658 414.632 376.46V260.983C414.632 257.785 412.03 255.184 408.832 255.184H396.968C393.546 255.184 390.762 257.968 390.762 261.389V266.988L364.646 266.996V261.371C364.645 257.96 361.869 255.184 358.458 255.184ZM391.001 275.242C395.419 275.242 399.015 271.648 399.015 267.229V263.437H406.378V374.006H348.463V263.438H356.391V266.997C356.391 271.543 360.091 275.242 364.637 275.242H391.001Z" fill="black"/>
<path d="M380.756 262.873C383.036 262.873 384.883 261.026 384.883 258.746C384.883 256.466 383.036 254.619 380.756 254.619H374.446C372.166 254.619 370.319 256.466 370.319 258.746C370.319 261.026 372.166 262.873 374.446 262.873H380.756ZM270.773 326.894C270.873 327.148 270.999 327.385 271.148 327.61C271.302 327.835 271.473 328.044 271.665 328.238C272.242 328.812 272.974 329.204 273.772 329.366C274.042 329.415 274.311 329.443 274.581 329.443C274.851 329.443 275.121 329.415 275.39 329.366C275.919 329.258 276.421 329.049 276.87 328.749C277.096 328.601 277.31 328.425 277.498 328.238C278.27 327.461 278.705 326.411 278.708 325.315C278.703 324.774 278.597 324.239 278.395 323.737C278.29 323.489 278.164 323.252 278.015 323.027C277.861 322.801 277.69 322.592 277.498 322.399C277.311 322.212 277.097 322.036 276.871 321.887C276.422 321.588 275.919 321.379 275.391 321.271C274.857 321.167 274.307 321.167 273.773 321.271C273.515 321.326 273.25 321.403 273.003 321.508C272.504 321.716 272.05 322.019 271.666 322.399C271.473 322.592 271.303 322.801 271.149 323.027C271.001 323.252 270.874 323.489 270.774 323.737C270.67 323.99 270.587 324.248 270.538 324.512C270.428 325.044 270.428 325.593 270.538 326.125C270.587 326.388 270.669 326.647 270.773 326.894ZM378.733 358.287C376.206 357.785 373.803 359.714 373.803 362.336C373.803 364.662 375.719 366.463 377.93 366.463C380.139 366.463 382.057 364.656 382.057 362.336C382.057 360.439 380.753 358.705 378.733 358.287ZM393.416 323.354H362.443C360.163 323.354 358.316 325.201 358.316 327.48C358.316 329.76 360.163 331.607 362.443 331.607H393.416C395.695 331.607 397.543 329.76 397.543 327.48C397.543 325.201 395.695 323.354 393.416 323.354ZM393.416 342.001H362.443C360.163 342.001 358.316 343.848 358.316 346.128C358.316 348.407 360.163 350.254 362.443 350.254H393.416C395.695 350.254 397.543 348.407 397.543 346.128C397.543 343.848 395.695 342.001 393.416 342.001ZM358.316 290.187C358.316 292.467 360.163 294.314 362.442 294.314H393.415C395.694 294.314 397.542 292.467 397.542 290.187C397.542 287.907 395.694 286.06 393.415 286.06H362.442C361.9 286.06 361.364 286.167 360.863 286.374C360.362 286.582 359.907 286.886 359.524 287.269C359.141 287.652 358.837 288.107 358.63 288.608C358.422 289.108 358.316 289.645 358.316 290.187ZM393.416 304.707H362.443C360.163 304.707 358.316 306.554 358.316 308.834C358.316 311.113 360.163 312.96 362.443 312.96H393.416C394.51 312.96 395.56 312.525 396.334 311.752C397.108 310.978 397.543 309.928 397.543 308.834C397.543 307.739 397.108 306.689 396.334 305.915C395.56 305.141 394.51 304.707 393.416 304.707ZM221.046 199.555H230.756C231.191 201.402 245.1 260.205 245.123 260.304C245.124 260.308 245.122 260.3 245.123 260.304C245.437 261.612 246.059 262.826 246.936 263.846C245.877 265.553 245.254 267.559 245.254 269.712C245.254 275.872 250.265 280.884 256.425 280.884C262.586 280.884 267.597 275.873 267.597 269.712C267.597 268.701 267.45 267.726 267.197 266.794H286.434C286.172 267.744 286.038 268.726 286.034 269.712C286.034 275.871 291.045 280.884 297.206 280.884C303.366 280.884 308.378 275.873 308.378 269.712C308.378 264.112 304.233 259.476 298.853 258.675C298.516 258.587 298.169 258.541 297.821 258.54H253.357C253.308 258.54 253.261 258.524 253.223 258.494C253.185 258.464 253.159 258.422 253.148 258.375L251.984 253.53H301.733C302.656 253.53 303.552 253.221 304.279 252.651C305.005 252.082 305.52 251.286 305.74 250.389L314.621 214.288C314.63 214.253 314.638 214.218 314.645 214.183C315.453 210.487 312.638 206.993 308.856 206.993H240.975L238.046 194.487C237.834 193.58 237.321 192.772 236.592 192.194C235.862 191.616 234.959 191.301 234.028 191.301H221.046C220.504 191.301 219.968 191.408 219.467 191.615C218.966 191.822 218.511 192.126 218.128 192.51C217.745 192.893 217.441 193.348 217.233 193.848C217.026 194.349 216.919 194.886 216.919 195.428C216.919 195.97 217.026 196.507 217.233 197.007C217.441 197.508 217.745 197.963 218.128 198.346C218.511 198.73 218.966 199.034 219.467 199.241C219.967 199.448 220.504 199.555 221.046 199.555ZM297.206 266.794C297.98 266.795 298.722 267.103 299.269 267.65C299.816 268.197 300.124 268.938 300.125 269.712C300.124 270.486 299.816 271.228 299.269 271.775C298.722 272.322 297.98 272.63 297.206 272.631C296.433 272.63 295.691 272.322 295.144 271.775C294.597 271.228 294.289 270.486 294.288 269.712C294.289 268.939 294.597 268.197 295.144 267.65C295.691 267.103 296.433 266.795 297.206 266.794ZM256.426 266.794C257.2 266.795 257.941 267.103 258.488 267.65C259.035 268.197 259.343 268.938 259.344 269.712C259.343 270.486 259.036 271.228 258.489 271.775C257.941 272.322 257.2 272.63 256.426 272.631C255.652 272.63 254.911 272.322 254.364 271.775C253.817 271.228 253.509 270.486 253.508 269.712C253.509 268.939 253.817 268.197 254.364 267.65C254.911 267.103 255.652 266.795 256.426 266.794ZM305.887 215.246L298.499 245.277H250.014L242.918 215.246H305.887ZM189.1 167.85C191.387 167.85 193.227 165.992 193.227 163.724C193.227 161.502 191.422 159.603 189.1 159.603C186.845 159.603 184.974 161.426 184.974 163.724C184.974 166.009 186.825 167.85 189.1 167.85ZM204.683 167.85C205.708 167.853 206.698 167.473 207.459 166.786C208.219 166.099 208.697 165.152 208.798 164.132C208.899 163.112 208.616 162.091 208.005 161.267C207.394 160.444 206.498 159.878 205.492 159.679C202.914 159.173 200.556 161.159 200.556 163.724C200.556 165.942 202.352 167.85 204.683 167.85ZM220.283 167.85C222.555 167.85 224.41 166.001 224.41 163.724C224.41 161.833 223.107 160.099 221.086 159.679C218.54 159.174 216.156 161.131 216.156 163.724C216.156 166.043 218.036 167.85 220.283 167.85ZM239.068 167.853H358.738C361.017 167.853 362.864 166.006 362.864 163.726C362.864 161.447 361.017 159.6 358.738 159.6H239.068C237.974 159.6 236.924 160.034 236.15 160.808C235.376 161.582 234.941 162.632 234.941 163.726C234.941 164.821 235.376 165.871 236.15 166.645C236.924 167.418 237.974 167.853 239.068 167.853Z" fill="black"/>
<path d="M151.127 257.164C152.221 257.164 153.271 256.73 154.045 255.956C154.819 255.182 155.254 254.132 155.254 253.038V147.47C155.254 140.939 160.567 135.625 167.098 135.625H339.147C340.241 135.625 341.291 135.19 342.065 134.416C342.839 133.643 343.274 132.593 343.274 131.498C343.274 129.219 341.427 127.372 339.147 127.372H167.098C156.016 127.371 147 136.387 147 147.47V253.038C147 253.58 147.107 254.117 147.314 254.617C147.522 255.118 147.826 255.573 148.209 255.956C148.592 256.339 149.047 256.643 149.548 256.85C150.048 257.058 150.585 257.164 151.127 257.164Z" fill="black"/>
<path d="M424.595 340.625C426.875 340.625 428.722 338.778 428.722 336.498V259.546C428.722 249.371 420.444 241.094 410.269 241.094H402.164V147.47C402.164 136.408 393.173 127.372 382.067 127.372H358.406C357.864 127.372 357.328 127.478 356.827 127.686C356.326 127.893 355.871 128.197 355.488 128.58C355.105 128.963 354.801 129.418 354.593 129.919C354.386 130.42 354.279 130.956 354.28 131.498C354.28 132.593 354.714 133.643 355.488 134.416C356.262 135.19 357.312 135.625 358.406 135.625H382.067C388.614 135.625 393.91 140.954 393.91 147.47V241.094H386.02V150.254C386.02 146.471 382.942 143.402 379.168 143.402H169.997C166.226 143.402 163.145 146.468 163.145 150.254V290.199C163.145 293.976 166.219 297.051 169.997 297.051H326.12V304.916H155.254V272.297C155.254 271.202 154.819 270.152 154.045 269.378C153.271 268.605 152.221 268.17 151.127 268.17C150.585 268.17 150.048 268.276 149.547 268.484C149.047 268.691 148.592 268.995 148.209 269.378C147.825 269.762 147.521 270.216 147.314 270.717C147.107 271.218 147 271.755 147 272.297V325.328C147 336.41 156.016 345.426 167.098 345.426H243.369L241.373 362.313C241.015 365.254 239.365 368.186 237.265 369.61L233.776 371.976H226.281C219.562 371.976 214.094 377.444 214.094 384.164C214.094 390.883 219.561 396.35 226.281 396.35H322.883C326.734 396.35 330.171 394.553 332.406 391.755C335.657 394.612 339.913 396.35 344.572 396.35H410.27C420.444 396.35 428.722 388.073 428.722 377.898V355.757C428.722 353.477 426.875 351.63 424.595 351.63C422.316 351.63 420.469 353.477 420.469 355.757V377.898C420.469 383.522 415.894 388.096 410.271 388.096H344.572C338.949 388.096 334.374 383.522 334.374 377.898V259.546C334.374 253.923 338.949 249.348 344.572 249.348H410.27C415.893 249.348 420.468 253.923 420.468 259.546V336.498C420.468 337.593 420.903 338.642 421.677 339.416C422.451 340.19 423.5 340.625 424.595 340.625ZM167.098 337.172C160.567 337.172 155.254 331.859 155.254 325.328V313.17H326.119V337.172H167.098ZM326.12 345.426V372.416C325.066 372.125 323.977 371.977 322.883 371.976H315.388L311.9 369.61C309.799 368.185 308.149 365.251 307.793 362.323L305.795 345.426H326.12ZM302.865 371.976H246.3C248.022 369.453 249.188 366.43 249.567 363.304L249.569 363.292L251.681 345.425H297.483L299.596 363.303C299.977 366.43 301.142 369.452 302.865 371.976ZM322.883 388.096H226.281C224.113 388.096 222.348 386.332 222.348 384.164C222.348 381.995 224.112 380.231 226.281 380.231H322.883C325.051 380.231 326.815 381.995 326.815 384.164C326.816 386.332 325.052 388.096 322.883 388.096ZM377.766 241.094H344.573C334.398 241.094 326.121 249.371 326.121 259.546V288.797H171.398V182.92H377.766V241.094ZM377.766 174.667H171.398V151.656H377.766V174.667Z" fill="black"/>
</g>
<path d="M185.473 446V418.227H181.391V411.625H196.43V418.227H192.348V446H185.473ZM198.031 446V411.625H204.672V446H198.031ZM207.406 446V411.625H221.156V418.266H214.398V424.965H220.883V431.43H214.398V439.301H221.605V446H207.406ZM223.891 446V411.625H230.961L234.125 428.09V411.625H240.766V446H234.047L230.609 428.812V446H223.891ZM243.812 446V411.625H253.266C255.74 411.625 257.602 412.315 258.852 413.695C260.102 415.062 260.727 417.068 260.727 419.711V435.805C260.727 439.06 260.154 441.573 259.008 443.344C257.875 445.115 255.883 446 253.031 446H243.812ZM250.727 439.926H251.918C253.181 439.926 253.812 439.314 253.812 438.09V420.355C253.812 419.21 253.656 418.474 253.344 418.148C253.044 417.81 252.426 417.641 251.488 417.641H250.727V439.926ZM262.602 446L265.922 411.625H277.582L280.844 446H274.34L273.852 440.453H269.711L269.281 446H262.602ZM270.199 434.965H273.324L271.82 417.484H271.508L270.199 434.965Z" fill="#212121"/>
<path d="M300.531 446.312C297.784 446.312 295.681 445.486 294.223 443.832C292.777 442.165 292.055 439.763 292.055 436.625V420.297C292.055 417.354 292.771 415.121 294.203 413.598C295.648 412.074 297.758 411.312 300.531 411.312C303.305 411.312 305.408 412.074 306.84 413.598C308.285 415.121 309.008 417.354 309.008 420.297V436.625C309.008 439.763 308.279 442.165 306.82 443.832C305.375 445.486 303.279 446.312 300.531 446.312ZM300.59 439.984C301.632 439.984 302.152 438.975 302.152 436.957V420.18C302.152 418.487 301.645 417.641 300.629 417.641C299.483 417.641 298.91 418.507 298.91 420.238V436.996C298.91 438.064 299.04 438.832 299.301 439.301C299.561 439.757 299.991 439.984 300.59 439.984ZM311.781 446V411.625H318.852L322.016 428.09V411.625H328.656V446H321.938L318.5 428.812V446H311.781ZM331.703 446V411.625H338.578V440.141H345.648V446H331.703ZM347.289 446V411.625H353.93V446H347.289ZM356.664 446V411.625H363.734L366.898 428.09V411.625H373.539V446H366.82L363.383 428.812V446H356.664ZM376.586 446V411.625H390.336V418.266H383.578V424.965H390.062V431.43H383.578V439.301H390.785V446H376.586Z" fill="#3997EE"/>
<defs>
<clipPath id="clip0_122_184">
<rect width="281.722" height="281.722" fill="white" transform="translate(147 121)"/>
</clipPath>
</defs>
</svg>
